<?xml version="1.0" encoding="utf-8"?>
<!-- Generator: Adobe Illustrator 23.1.0, SVG Export Plug-In . SVG Version: 6.00 Build 0)  -->
<svg version="1.1" id="Layer_1" xmlns="http://www.w3.org/2000/svg" xmlns:xlink="http://www.w3.org/1999/xlink" x="0px" y="0px"
	 viewBox="0 0 360 240" style="enable-background:new 0 0 360 240;" xml:space="preserve">
<style type="text/css">
	.st0{fill:url(#SVGID_1_);}
	.st1{fill:url(#SVGID_2_);}
	.st2{fill:url(#SVGID_3_);}
	.st3{fill:url(#SVGID_4_);}
	.st4{fill:url(#SVGID_5_);}
	.st5{fill:url(#SVGID_6_);}
	.st6{fill:url(#SVGID_7_);}
	.st7{fill:url(#SVGID_8_);}
	.st8{fill:url(#SVGID_9_);}
	.st9{fill:url(#SVGID_10_);}
	.st10{fill:#A7B8F5;}
	.st11{fill:url(#SVGID_11_);}
	.st12{fill:url(#SVGID_12_);}
	.st13{fill:url(#SVGID_13_);}
	.st14{fill:url(#SVGID_14_);}
	.st15{fill:url(#SVGID_15_);}
	.st16{fill:url(#SVGID_16_);}
	.st17{fill:url(#SVGID_17_);}
	.st18{fill:url(#SVGID_18_);}
	.st19{fill:url(#SVGID_19_);}
	.st20{fill:url(#SVGID_20_);}
	.st21{fill:url(#SVGID_21_);}
	.st22{fill:url(#SVGID_22_);}
	.st23{fill:url(#SVGID_23_);}
	.st24{fill:url(#SVGID_24_);}
	.st25{fill:url(#SVGID_25_);}
	.st26{fill:url(#SVGID_26_);}
	.st27{fill:url(#SVGID_27_);}
	.st28{fill:url(#SVGID_28_);}
	.st29{fill:url(#SVGID_29_);}
	.st30{fill:url(#SVGID_30_);}
	.st31{fill:url(#SVGID_31_);}
	.st32{fill:url(#SVGID_32_);}
	.st33{fill:url(#SVGID_33_);}
	.st34{fill:url(#SVGID_34_);}
	.st35{fill:url(#SVGID_35_);}
	.st36{fill:url(#SVGID_36_);}
	.st37{fill:url(#SVGID_37_);}
	.st38{fill:url(#SVGID_38_);}
	.st39{fill:url(#SVGID_39_);}
	.st40{fill:url(#SVGID_40_);}
	.st41{fill:url(#SVGID_41_);}
	.st42{fill:url(#SVGID_42_);}
	.st43{fill:url(#SVGID_43_);}
	.st44{fill:url(#SVGID_44_);}
	.st45{fill:url(#SVGID_45_);}
	.st46{fill:url(#SVGID_46_);}
	.st47{fill:url(#SVGID_47_);}
	.st48{fill:url(#SVGID_48_);}
	.st49{fill:url(#SVGID_49_);}
	.st50{fill:url(#SVGID_50_);}
	.st51{fill:url(#SVGID_51_);}
	.st52{fill:url(#SVGID_52_);}
	.st53{fill:url(#SVGID_53_);}
	.st54{fill:url(#SVGID_54_);}
	.st55{fill:url(#SVGID_55_);}
	.st56{fill:url(#SVGID_56_);}
	.st57{fill:url(#SVGID_57_);}
	.st58{fill:url(#SVGID_58_);}
	.st59{fill:url(#SVGID_59_);}
	.st60{fill:url(#SVGID_60_);}
	.st61{fill:url(#SVGID_61_);}
	.st62{fill:url(#SVGID_62_);}
	.st63{fill:url(#SVGID_63_);}
	.st64{fill:url(#SVGID_64_);}
	.st65{fill:url(#SVGID_65_);}
	.st66{fill:url(#SVGID_66_);}
	.st67{fill:url(#SVGID_67_);}
	.st68{fill:url(#SVGID_68_);}
	.st69{fill:url(#SVGID_69_);}
	.st70{fill:url(#SVGID_70_);}
	.st71{fill:url(#SVGID_71_);}
	.st72{fill:url(#SVGID_72_);}
	.st73{fill:url(#SVGID_73_);}
	.st74{fill:url(#SVGID_74_);}
	.st75{fill:url(#SVGID_75_);}
	.st76{fill:url(#SVGID_76_);}
	.st77{fill:url(#SVGID_77_);}
	.st78{fill:url(#SVGID_78_);}
	.st79{fill:url(#SVGID_79_);}
	.st80{fill:url(#SVGID_80_);}
	.st81{fill:url(#SVGID_81_);}
	.st82{fill:url(#SVGID_82_);}
	.st83{fill:url(#SVGID_83_);}
	.st84{fill:url(#SVGID_84_);}
	.st85{fill:url(#SVGID_85_);}
	.st86{fill:url(#SVGID_86_);}
	.st87{fill:url(#SVGID_87_);}
	.st88{fill:url(#SVGID_88_);}
	.st89{fill:url(#SVGID_89_);}
	.st90{fill:url(#SVGID_90_);}
	.st91{fill:url(#SVGID_91_);}
	.st92{fill:url(#SVGID_92_);}
	.st93{fill:url(#SVGID_93_);}
	.st94{fill:url(#SVGID_94_);}
	.st95{fill:url(#SVGID_95_);}
	.st96{fill:url(#SVGID_96_);}
	.st97{fill:url(#SVGID_97_);}
	.st98{fill:url(#SVGID_98_);}
	.st99{fill:url(#SVGID_99_);}
	.st100{fill:url(#SVGID_100_);}
	.st101{fill:url(#SVGID_101_);}
	.st102{fill:url(#SVGID_102_);}
	.st103{fill:url(#SVGID_103_);}
	.st104{fill:url(#SVGID_104_);}
	.st105{fill:url(#SVGID_105_);}
	.st106{fill:url(#SVGID_106_);}
	.st107{fill:url(#SVGID_107_);}
	.st108{fill:url(#SVGID_108_);}
	.st109{fill:url(#SVGID_109_);}
	.st110{fill:url(#SVGID_110_);}
	.st111{fill:url(#SVGID_111_);}
	.st112{fill:none;}
	.st113{fill:#D988FF;}
	.st114{fill:#6979C5;}
</style>
<linearGradient id="SVGID_1_" gradientUnits="userSpaceOnUse" x1="349.5015" y1="72.0679" x2="349.5015" y2="60.9535">
	<stop  offset="0" style="stop-color:#EDC7FF"/>
	<stop  offset="1" style="stop-color:#B06BF5"/>
</linearGradient>
<rect x="349.3" y="61" class="st0" width="0.4" height="11.1"/>
<linearGradient id="SVGID_2_" gradientUnits="userSpaceOnUse" x1="343.3303" y1="67.9013" x2="343.3303" y2="57.7451">
	<stop  offset="0" style="stop-color:#EDC7FF"/>
	<stop  offset="1" style="stop-color:#B06BF5"/>
</linearGradient>
<rect x="343.1" y="57.7" class="st1" width="0.4" height="10.2"/>
<linearGradient id="SVGID_3_" gradientUnits="userSpaceOnUse" x1="337.1591" y1="71.9171" x2="337.1591" y2="57.7367">
	<stop  offset="0" style="stop-color:#B3C5FF"/>
	<stop  offset="1" style="stop-color:#6979C5"/>
</linearGradient>
<rect x="337" y="57.7" class="st2" width="0.4" height="14.2"/>
<linearGradient id="SVGID_4_" gradientUnits="userSpaceOnUse" x1="330.9881" y1="84.3986" x2="330.9881" y2="63.8948">
	<stop  offset="0" style="stop-color:#B3C5FF"/>
	<stop  offset="1" style="stop-color:#6979C5"/>
</linearGradient>
<rect x="330.8" y="63.9" class="st3" width="0.4" height="20.5"/>
<linearGradient id="SVGID_5_" gradientUnits="userSpaceOnUse" x1="324.8169" y1="80.9016" x2="324.8169" y2="60.6848">
	<stop  offset="0" style="stop-color:#EDC7FF"/>
	<stop  offset="1" style="stop-color:#B06BF5"/>
</linearGradient>
<rect x="324.6" y="60.7" class="st4" width="0.4" height="20.2"/>
<linearGradient id="SVGID_6_" gradientUnits="userSpaceOnUse" x1="318.6458" y1="87.5577" x2="318.6458" y2="60.1551">
	<stop  offset="0" style="stop-color:#EDC7FF"/>
	<stop  offset="1" style="stop-color:#B06BF5"/>
</linearGradient>
<rect x="318.4" y="60.2" class="st5" width="0.4" height="27.4"/>
<linearGradient id="SVGID_7_" gradientUnits="userSpaceOnUse" x1="312.4747" y1="96.9763" x2="312.4747" y2="75.7058">
	<stop  offset="0" style="stop-color:#B3C5FF"/>
	<stop  offset="1" style="stop-color:#6979C5"/>
</linearGradient>
<rect x="312.3" y="75.7" class="st6" width="0.4" height="21.3"/>
<linearGradient id="SVGID_8_" gradientUnits="userSpaceOnUse" x1="306.3035" y1="100.6713" x2="306.3035" y2="82.6704">
	<stop  offset="0" style="stop-color:#EDC7FF"/>
	<stop  offset="1" style="stop-color:#B06BF5"/>
</linearGradient>
<rect x="306.1" y="82.7" class="st7" width="0.4" height="18"/>
<linearGradient id="SVGID_9_" gradientUnits="userSpaceOnUse" x1="300.1324" y1="101.2489" x2="300.1324" y2="87.5473">
	<stop  offset="0" style="stop-color:#EDC7FF"/>
	<stop  offset="1" style="stop-color:#B06BF5"/>
</linearGradient>
<rect x="299.9" y="87.5" class="st8" width="0.4" height="13.7"/>
<linearGradient id="SVGID_10_" gradientUnits="userSpaceOnUse" x1="293.9613" y1="106.3689" x2="293.9613" y2="87.973">
	<stop  offset="0" style="stop-color:#B3C5FF"/>
	<stop  offset="1" style="stop-color:#6979C5"/>
</linearGradient>
<rect x="293.8" y="88" class="st9" width="0.4" height="18.4"/>
<rect x="287.6" y="72.3" class="st10" width="0.4" height="40"/>
<linearGradient id="SVGID_11_" gradientUnits="userSpaceOnUse" x1="281.619" y1="101.7962" x2="281.619" y2="80.5257">
	<stop  offset="0" style="stop-color:#B3C5FF"/>
	<stop  offset="1" style="stop-color:#6979C5"/>
</linearGradient>
<rect x="281.4" y="80.5" class="st11" width="0.4" height="21.3"/>
<linearGradient id="SVGID_12_" gradientUnits="userSpaceOnUse" x1="275.4478" y1="105.2068" x2="275.4478" y2="90.1461">
	<stop  offset="0" style="stop-color:#B3C5FF"/>
	<stop  offset="1" style="stop-color:#6979C5"/>
</linearGradient>
<rect x="275.3" y="90.1" class="st12" width="0.4" height="15.1"/>
<linearGradient id="SVGID_13_" gradientUnits="userSpaceOnUse" x1="269.2767" y1="110.7601" x2="269.2767" y2="93.0942">
	<stop  offset="0" style="stop-color:#B3C5FF"/>
	<stop  offset="1" style="stop-color:#6979C5"/>
</linearGradient>
<rect x="269.1" y="93.1" class="st13" width="0.4" height="17.7"/>
<linearGradient id="SVGID_14_" gradientUnits="userSpaceOnUse" x1="263.1056" y1="127.5262" x2="263.1056" y2="86.0148">
	<stop  offset="0" style="stop-color:#EDC7FF"/>
	<stop  offset="1" style="stop-color:#B06BF5"/>
</linearGradient>
<rect x="262.9" y="86" class="st14" width="0.4" height="41.5"/>
<linearGradient id="SVGID_15_" gradientUnits="userSpaceOnUse" x1="256.9344" y1="112.9424" x2="256.9344" y2="93.0134">
	<stop  offset="0" style="stop-color:#B3C5FF"/>
	<stop  offset="1" style="stop-color:#6979C5"/>
</linearGradient>
<rect x="256.7" y="93" class="st15" width="0.4" height="19.9"/>
<linearGradient id="SVGID_16_" gradientUnits="userSpaceOnUse" x1="250.7634" y1="122.3839" x2="250.7634" y2="95.6282">
	<stop  offset="0" style="stop-color:#B3C5FF"/>
	<stop  offset="1" style="stop-color:#6979C5"/>
</linearGradient>
<rect x="250.6" y="95.6" class="st16" width="0.4" height="26.8"/>
<linearGradient id="SVGID_17_" gradientUnits="userSpaceOnUse" x1="244.5922" y1="128.6002" x2="244.5922" y2="97.2332">
	<stop  offset="0" style="stop-color:#EDC7FF"/>
	<stop  offset="1" style="stop-color:#B06BF5"/>
</linearGradient>
<rect x="244.4" y="97.2" class="st17" width="0.4" height="31.4"/>
<linearGradient id="SVGID_18_" gradientUnits="userSpaceOnUse" x1="238.421" y1="124.3208" x2="238.421" y2="92.0075">
	<stop  offset="0" style="stop-color:#EDC7FF"/>
	<stop  offset="1" style="stop-color:#B06BF5"/>
</linearGradient>
<rect x="238.2" y="92" class="st18" width="0.4" height="32.3"/>
<linearGradient id="SVGID_19_" gradientUnits="userSpaceOnUse" x1="232.25" y1="112.2935" x2="232.25" y2="74.8664">
	<stop  offset="0" style="stop-color:#EDC7FF"/>
	<stop  offset="1" style="stop-color:#B06BF5"/>
</linearGradient>
<rect x="232.1" y="74.9" class="st19" width="0.4" height="37.4"/>
<linearGradient id="SVGID_20_" gradientUnits="userSpaceOnUse" x1="226.0788" y1="120.3506" x2="226.0788" y2="84.9954">
	<stop  offset="0" style="stop-color:#B3C5FF"/>
	<stop  offset="1" style="stop-color:#6979C5"/>
</linearGradient>
<rect x="225.9" y="85" class="st20" width="0.4" height="35.4"/>
<linearGradient id="SVGID_21_" gradientUnits="userSpaceOnUse" x1="219.9076" y1="129.5139" x2="219.9076" y2="97.6079">
	<stop  offset="0" style="stop-color:#B3C5FF"/>
	<stop  offset="1" style="stop-color:#6979C5"/>
</linearGradient>
<rect x="219.7" y="97.6" class="st21" width="0.4" height="31.9"/>
<linearGradient id="SVGID_22_" gradientUnits="userSpaceOnUse" x1="213.7365" y1="133.0079" x2="213.7365" y2="115.2582">
	<stop  offset="0" style="stop-color:#EDC7FF"/>
	<stop  offset="1" style="stop-color:#B06BF5"/>
</linearGradient>
<rect x="213.5" y="115.3" class="st22" width="0.4" height="17.7"/>
<linearGradient id="SVGID_23_" gradientUnits="userSpaceOnUse" x1="207.5654" y1="141.8278" x2="207.5654" y2="71.8363">
	<stop  offset="0" style="stop-color:#EDC7FF"/>
	<stop  offset="1" style="stop-color:#B06BF5"/>
</linearGradient>
<rect x="207.4" y="71.8" class="st23" width="0.4" height="70"/>
<linearGradient id="SVGID_24_" gradientUnits="userSpaceOnUse" x1="201.3942" y1="117.5471" x2="201.3942" y2="51.2444">
	<stop  offset="0" style="stop-color:#EDC7FF"/>
	<stop  offset="1" style="stop-color:#B06BF5"/>
</linearGradient>
<rect x="201.2" y="51.2" class="st24" width="0.4" height="66.3"/>
<linearGradient id="SVGID_25_" gradientUnits="userSpaceOnUse" x1="195.2231" y1="82.8427" x2="195.2231" y2="68.4705">
	<stop  offset="0" style="stop-color:#EDC7FF"/>
	<stop  offset="1" style="stop-color:#B06BF5"/>
</linearGradient>
<rect x="195" y="68.5" class="st25" width="0.4" height="14.4"/>
<linearGradient id="SVGID_26_" gradientUnits="userSpaceOnUse" x1="189.052" y1="95.9256" x2="189.052" y2="65.8401">
	<stop  offset="0" style="stop-color:#B3C5FF"/>
	<stop  offset="1" style="stop-color:#6979C5"/>
</linearGradient>
<rect x="188.9" y="65.8" class="st26" width="0.4" height="30.1"/>
<linearGradient id="SVGID_27_" gradientUnits="userSpaceOnUse" x1="182.8809" y1="94.6973" x2="182.8809" y2="60.9708">
	<stop  offset="0" style="stop-color:#EDC7FF"/>
	<stop  offset="1" style="stop-color:#B06BF5"/>
</linearGradient>
<rect x="182.7" y="61" class="st27" width="0.4" height="33.7"/>
<linearGradient id="SVGID_28_" gradientUnits="userSpaceOnUse" x1="176.7097" y1="75.7088" x2="176.7097" y2="61.1453">
	<stop  offset="0" style="stop-color:#B3C5FF"/>
	<stop  offset="1" style="stop-color:#6979C5"/>
</linearGradient>
<rect x="176.5" y="61.1" class="st28" width="0.4" height="14.6"/>
<linearGradient id="SVGID_29_" gradientUnits="userSpaceOnUse" x1="170.5382" y1="89.2098" x2="170.5382" y2="65.0649">
	<stop  offset="0" style="stop-color:#B3C5FF"/>
	<stop  offset="1" style="stop-color:#6979C5"/>
</linearGradient>
<rect x="170.3" y="65.1" class="st29" width="0.4" height="24.1"/>
<linearGradient id="SVGID_30_" gradientUnits="userSpaceOnUse" x1="164.3671" y1="91.7269" x2="164.3671" y2="77.3552">
	<stop  offset="0" style="stop-color:#B3C5FF"/>
	<stop  offset="1" style="stop-color:#6979C5"/>
</linearGradient>
<rect x="164.2" y="77.4" class="st30" width="0.4" height="14.4"/>
<linearGradient id="SVGID_31_" gradientUnits="userSpaceOnUse" x1="158.1959" y1="91.7591" x2="158.1959" y2="66.4644">
	<stop  offset="0" style="stop-color:#EDC7FF"/>
	<stop  offset="1" style="stop-color:#B06BF5"/>
</linearGradient>
<rect x="158" y="66.5" class="st31" width="0.4" height="25.3"/>
<linearGradient id="SVGID_32_" gradientUnits="userSpaceOnUse" x1="152.0248" y1="95.4215" x2="152.0248" y2="73.8635">
	<stop  offset="0" style="stop-color:#B3C5FF"/>
	<stop  offset="1" style="stop-color:#6979C5"/>
</linearGradient>
<rect x="151.8" y="73.9" class="st32" width="0.4" height="21.6"/>
<linearGradient id="SVGID_33_" gradientUnits="userSpaceOnUse" x1="145.8537" y1="104.7926" x2="145.8537" y2="75.0903">
	<stop  offset="0" style="stop-color:#EDC7FF"/>
	<stop  offset="1" style="stop-color:#B06BF5"/>
</linearGradient>
<rect x="145.7" y="75.1" class="st33" width="0.4" height="29.7"/>
<linearGradient id="SVGID_34_" gradientUnits="userSpaceOnUse" x1="139.6825" y1="102.8558" x2="139.6825" y2="94.5201">
	<stop  offset="0" style="stop-color:#B3C5FF"/>
	<stop  offset="1" style="stop-color:#6979C5"/>
</linearGradient>
<rect x="139.5" y="94.5" class="st34" width="0.4" height="8.3"/>
<linearGradient id="SVGID_35_" gradientUnits="userSpaceOnUse" x1="133.5114" y1="112.2392" x2="133.5114" y2="87.663">
	<stop  offset="0" style="stop-color:#EDC7FF"/>
	<stop  offset="1" style="stop-color:#B06BF5"/>
</linearGradient>
<rect x="133.3" y="87.7" class="st35" width="0.4" height="24.6"/>
<linearGradient id="SVGID_36_" gradientUnits="userSpaceOnUse" x1="127.3403" y1="115.0461" x2="127.3403" y2="90.0389">
	<stop  offset="0" style="stop-color:#B3C5FF"/>
	<stop  offset="1" style="stop-color:#6979C5"/>
</linearGradient>
<rect x="127.1" y="90" class="st36" width="0.4" height="25"/>
<linearGradient id="SVGID_37_" gradientUnits="userSpaceOnUse" x1="121.1691" y1="117.0537" x2="121.1691" y2="98.6575">
	<stop  offset="0" style="stop-color:#EDC7FF"/>
	<stop  offset="1" style="stop-color:#B06BF5"/>
</linearGradient>
<rect x="121" y="98.7" class="st37" width="0.4" height="18.4"/>
<linearGradient id="SVGID_38_" gradientUnits="userSpaceOnUse" x1="114.998" y1="104.5611" x2="114.998" y2="91.7698">
	<stop  offset="0" style="stop-color:#B3C5FF"/>
	<stop  offset="1" style="stop-color:#6979C5"/>
</linearGradient>
<rect x="114.8" y="91.8" class="st38" width="0.4" height="12.8"/>
<linearGradient id="SVGID_39_" gradientUnits="userSpaceOnUse" x1="108.8269" y1="116.418" x2="108.8269" y2="89.9734">
	<stop  offset="0" style="stop-color:#B3C5FF"/>
	<stop  offset="1" style="stop-color:#6979C5"/>
</linearGradient>
<rect x="108.6" y="90" class="st39" width="0.4" height="26.4"/>
<linearGradient id="SVGID_40_" gradientUnits="userSpaceOnUse" x1="102.6557" y1="115.6394" x2="102.6557" y2="108.2376">
	<stop  offset="0" style="stop-color:#B3C5FF"/>
	<stop  offset="1" style="stop-color:#6979C5"/>
</linearGradient>
<rect x="102.5" y="108.2" class="st40" width="0.4" height="7.4"/>
<linearGradient id="SVGID_41_" gradientUnits="userSpaceOnUse" x1="96.4846" y1="119.0059" x2="96.4846" y2="109.8797">
	<stop  offset="0" style="stop-color:#EDC7FF"/>
	<stop  offset="1" style="stop-color:#B06BF5"/>
</linearGradient>
<rect x="96.3" y="109.9" class="st41" width="0.4" height="9.1"/>
<linearGradient id="SVGID_42_" gradientUnits="userSpaceOnUse" x1="90.3134" y1="145.7773" x2="90.3134" y2="102.2782">
	<stop  offset="0" style="stop-color:#B3C5FF"/>
	<stop  offset="1" style="stop-color:#6979C5"/>
</linearGradient>
<rect x="90.1" y="102.3" class="st42" width="0.4" height="43.5"/>
<linearGradient id="SVGID_43_" gradientUnits="userSpaceOnUse" x1="84.1423" y1="139.0822" x2="84.1423" y2="126.6262">
	<stop  offset="0" style="stop-color:#B3C5FF"/>
	<stop  offset="1" style="stop-color:#6979C5"/>
</linearGradient>
<rect x="83.9" y="126.6" class="st43" width="0.4" height="12.5"/>
<linearGradient id="SVGID_44_" gradientUnits="userSpaceOnUse" x1="77.9712" y1="143.5768" x2="77.9712" y2="131.8875">
	<stop  offset="0" style="stop-color:#B3C5FF"/>
	<stop  offset="1" style="stop-color:#6979C5"/>
</linearGradient>
<rect x="77.8" y="131.9" class="st44" width="0.4" height="11.7"/>
<linearGradient id="SVGID_45_" gradientUnits="userSpaceOnUse" x1="71.8" y1="148.1" x2="71.8" y2="127.5962">
	<stop  offset="0" style="stop-color:#EDC7FF"/>
	<stop  offset="1" style="stop-color:#B06BF5"/>
</linearGradient>
<rect x="71.6" y="127.6" class="st45" width="0.4" height="20.5"/>
<linearGradient id="SVGID_46_" gradientUnits="userSpaceOnUse" x1="65.629" y1="150.3255" x2="65.629" y2="132.6002">
	<stop  offset="0" style="stop-color:#B3C5FF"/>
	<stop  offset="1" style="stop-color:#6979C5"/>
</linearGradient>
<rect x="65.4" y="132.6" class="st46" width="0.4" height="17.7"/>
<linearGradient id="SVGID_47_" gradientUnits="userSpaceOnUse" x1="59.4578" y1="167.2772" x2="59.4578" y2="143.899">
	<stop  offset="0" style="stop-color:#B3C5FF"/>
	<stop  offset="1" style="stop-color:#6979C5"/>
</linearGradient>
<rect x="59.3" y="143.9" class="st47" width="0.4" height="23.4"/>
<linearGradient id="SVGID_48_" gradientUnits="userSpaceOnUse" x1="53.2866" y1="163.4972" x2="53.2866" y2="146.634">
	<stop  offset="0" style="stop-color:#EDC7FF"/>
	<stop  offset="1" style="stop-color:#B06BF5"/>
</linearGradient>
<rect x="53.1" y="146.6" class="st48" width="0.4" height="16.9"/>
<linearGradient id="SVGID_49_" gradientUnits="userSpaceOnUse" x1="47.1156" y1="169.2894" x2="47.1156" y2="128.4727">
	<stop  offset="0" style="stop-color:#EDC7FF"/>
	<stop  offset="1" style="stop-color:#B06BF5"/>
</linearGradient>
<rect x="46.9" y="128.5" class="st49" width="0.4" height="40.8"/>
<linearGradient id="SVGID_50_" gradientUnits="userSpaceOnUse" x1="40.9444" y1="156.0078" x2="40.9444" y2="126.9761">
	<stop  offset="0" style="stop-color:#B3C5FF"/>
	<stop  offset="1" style="stop-color:#6979C5"/>
</linearGradient>
<rect x="40.7" y="127" class="st50" width="0.4" height="29"/>
<linearGradient id="SVGID_51_" gradientUnits="userSpaceOnUse" x1="34.7733" y1="142.6505" x2="34.7733" y2="131.5361">
	<stop  offset="0" style="stop-color:#EDC7FF"/>
	<stop  offset="1" style="stop-color:#B06BF5"/>
</linearGradient>
<rect x="34.6" y="131.5" class="st51" width="0.4" height="11.1"/>
<linearGradient id="SVGID_52_" gradientUnits="userSpaceOnUse" x1="22.431" y1="147.2277" x2="22.431" y2="125.4779">
	<stop  offset="0" style="stop-color:#EDC7FF"/>
	<stop  offset="1" style="stop-color:#B06BF5"/>
</linearGradient>
<rect x="22.2" y="125.5" class="st52" width="0.4" height="21.7"/>
<linearGradient id="SVGID_53_" gradientUnits="userSpaceOnUse" x1="16.2599" y1="150.2922" x2="16.2599" y2="136.495">
	<stop  offset="0" style="stop-color:#B3C5FF"/>
	<stop  offset="1" style="stop-color:#6979C5"/>
</linearGradient>
<rect x="16.1" y="136.5" class="st53" width="0.4" height="13.8"/>
<linearGradient id="SVGID_54_" gradientUnits="userSpaceOnUse" x1="10.0887" y1="153.8983" x2="10.0887" y2="129.7535">
	<stop  offset="0" style="stop-color:#EDC7FF"/>
	<stop  offset="1" style="stop-color:#B06BF5"/>
</linearGradient>
<rect x="9.9" y="129.8" class="st54" width="0.4" height="24.1"/>
<linearGradient id="SVGID_55_" gradientUnits="userSpaceOnUse" x1="349.5015" y1="68.1945" x2="349.5015" y2="64.8268">
	<stop  offset="0" style="stop-color:#EDC7FF"/>
	<stop  offset="1" style="stop-color:#B06BF5"/>
</linearGradient>
<rect x="347.5" y="64.8" class="st55" width="3.9" height="3.4"/>
<linearGradient id="SVGID_56_" gradientUnits="userSpaceOnUse" x1="343.3303" y1="64.3622" x2="343.3303" y2="61.2847">
	<stop  offset="0" style="stop-color:#EDC7FF"/>
	<stop  offset="1" style="stop-color:#B06BF5"/>
</linearGradient>
<rect x="341.4" y="61.3" class="st56" width="3.9" height="3.1"/>
<linearGradient id="SVGID_57_" gradientUnits="userSpaceOnUse" x1="337.1591" y1="66.9754" x2="337.1591" y2="62.6783">
	<stop  offset="0" style="stop-color:#B3C5FF"/>
	<stop  offset="1" style="stop-color:#6979C5"/>
</linearGradient>
<rect x="335.2" y="62.7" class="st57" width="3.9" height="4.3"/>
<linearGradient id="SVGID_58_" gradientUnits="userSpaceOnUse" x1="330.9881" y1="77.2533" x2="330.9881" y2="71.0401">
	<stop  offset="0" style="stop-color:#B3C5FF"/>
	<stop  offset="1" style="stop-color:#6979C5"/>
</linearGradient>
<rect x="329" y="71" class="st58" width="3.9" height="6.2"/>
<linearGradient id="SVGID_59_" gradientUnits="userSpaceOnUse" x1="324.8169" y1="73.8566" x2="324.8169" y2="67.7302">
	<stop  offset="0" style="stop-color:#EDC7FF"/>
	<stop  offset="1" style="stop-color:#B06BF5"/>
</linearGradient>
<rect x="322.9" y="67.7" class="st59" width="3.9" height="6.1"/>
<linearGradient id="SVGID_60_" gradientUnits="userSpaceOnUse" x1="318.6458" y1="78.0082" x2="318.6458" y2="69.7046">
	<stop  offset="0" style="stop-color:#EDC7FF"/>
	<stop  offset="1" style="stop-color:#B06BF5"/>
</linearGradient>
<rect x="316.7" y="69.7" class="st60" width="3.9" height="8.3"/>
<linearGradient id="SVGID_61_" gradientUnits="userSpaceOnUse" x1="312.4747" y1="89.5638" x2="312.4747" y2="83.1182">
	<stop  offset="0" style="stop-color:#B3C5FF"/>
	<stop  offset="1" style="stop-color:#6979C5"/>
</linearGradient>
<rect x="310.5" y="83.1" class="st61" width="3.9" height="6.4"/>
<linearGradient id="SVGID_62_" gradientUnits="userSpaceOnUse" x1="306.3035" y1="94.3983" x2="306.3035" y2="88.9434">
	<stop  offset="0" style="stop-color:#EDC7FF"/>
	<stop  offset="1" style="stop-color:#B06BF5"/>
</linearGradient>
<rect x="304.3" y="88.9" class="st62" width="3.9" height="5.5"/>
<linearGradient id="SVGID_63_" gradientUnits="userSpaceOnUse" x1="300.1324" y1="96.4742" x2="300.1324" y2="92.3222">
	<stop  offset="0" style="stop-color:#EDC7FF"/>
	<stop  offset="1" style="stop-color:#B06BF5"/>
</linearGradient>
<rect x="298.2" y="92.3" class="st63" width="3.9" height="4.2"/>
<linearGradient id="SVGID_64_" gradientUnits="userSpaceOnUse" x1="293.9613" y1="99.9582" x2="293.9613" y2="94.3837">
	<stop  offset="0" style="stop-color:#B3C5FF"/>
	<stop  offset="1" style="stop-color:#6979C5"/>
</linearGradient>
<rect x="292" y="94.4" class="st64" width="3.9" height="5.6"/>
<linearGradient id="SVGID_65_" gradientUnits="userSpaceOnUse" x1="287.7901" y1="98.3903" x2="287.7901" y2="86.2539">
	<stop  offset="0" style="stop-color:#EDC7FF"/>
	<stop  offset="1" style="stop-color:#B06BF5"/>
</linearGradient>
<rect x="285.8" y="86.3" class="st65" width="3.9" height="12.1"/>
<linearGradient id="SVGID_66_" gradientUnits="userSpaceOnUse" x1="281.619" y1="94.3837" x2="281.619" y2="87.9382">
	<stop  offset="0" style="stop-color:#B3C5FF"/>
	<stop  offset="1" style="stop-color:#6979C5"/>
</linearGradient>
<rect x="279.7" y="87.9" class="st66" width="3.9" height="6.4"/>
<linearGradient id="SVGID_67_" gradientUnits="userSpaceOnUse" x1="275.4478" y1="99.9582" x2="275.4478" y2="95.3943">
	<stop  offset="0" style="stop-color:#B3C5FF"/>
	<stop  offset="1" style="stop-color:#6979C5"/>
</linearGradient>
<rect x="273.5" y="95.4" class="st67" width="3.9" height="4.6"/>
<linearGradient id="SVGID_68_" gradientUnits="userSpaceOnUse" x1="269.2767" y1="104.604" x2="269.2767" y2="99.2504">
	<stop  offset="0" style="stop-color:#B3C5FF"/>
	<stop  offset="1" style="stop-color:#6979C5"/>
</linearGradient>
<rect x="267.3" y="99.3" class="st68" width="3.9" height="5.4"/>
<linearGradient id="SVGID_69_" gradientUnits="userSpaceOnUse" x1="263.1056" y1="113.0599" x2="263.1056" y2="100.481">
	<stop  offset="0" style="stop-color:#EDC7FF"/>
	<stop  offset="1" style="stop-color:#B06BF5"/>
</linearGradient>
<rect x="261.1" y="100.5" class="st69" width="3.9" height="12.6"/>
<linearGradient id="SVGID_70_" gradientUnits="userSpaceOnUse" x1="256.9344" y1="105.9976" x2="256.9344" y2="99.9582">
	<stop  offset="0" style="stop-color:#B3C5FF"/>
	<stop  offset="1" style="stop-color:#6979C5"/>
</linearGradient>
<rect x="255" y="100" class="st70" width="3.9" height="6"/>
<linearGradient id="SVGID_71_" gradientUnits="userSpaceOnUse" x1="250.7634" y1="113.0599" x2="250.7634" y2="104.9522">
	<stop  offset="0" style="stop-color:#B3C5FF"/>
	<stop  offset="1" style="stop-color:#6979C5"/>
</linearGradient>
<rect x="248.8" y="105" class="st71" width="3.9" height="8.1"/>
<linearGradient id="SVGID_72_" gradientUnits="userSpaceOnUse" x1="244.5922" y1="117.6693" x2="244.5922" y2="108.1642">
	<stop  offset="0" style="stop-color:#EDC7FF"/>
	<stop  offset="1" style="stop-color:#B06BF5"/>
</linearGradient>
<rect x="242.6" y="108.2" class="st72" width="3.9" height="9.5"/>
<linearGradient id="SVGID_73_" gradientUnits="userSpaceOnUse" x1="238.421" y1="113.0599" x2="238.421" y2="103.2681">
	<stop  offset="0" style="stop-color:#EDC7FF"/>
	<stop  offset="1" style="stop-color:#B06BF5"/>
</linearGradient>
<rect x="236.5" y="103.3" class="st73" width="3.9" height="9.8"/>
<linearGradient id="SVGID_74_" gradientUnits="userSpaceOnUse" x1="232.25" y1="99.2504" x2="232.25" y2="87.9091">
	<stop  offset="0" style="stop-color:#EDC7FF"/>
	<stop  offset="1" style="stop-color:#B06BF5"/>
</linearGradient>
<rect x="230.3" y="87.9" class="st74" width="3.9" height="11.3"/>
<linearGradient id="SVGID_75_" gradientUnits="userSpaceOnUse" x1="226.0788" y1="108.0298" x2="226.0788" y2="97.3162">
	<stop  offset="0" style="stop-color:#B3C5FF"/>
	<stop  offset="1" style="stop-color:#6979C5"/>
</linearGradient>
<rect x="224.1" y="97.3" class="st75" width="3.9" height="10.7"/>
<linearGradient id="SVGID_76_" gradientUnits="userSpaceOnUse" x1="219.9076" y1="118.395" x2="219.9076" y2="108.7268">
	<stop  offset="0" style="stop-color:#B3C5FF"/>
	<stop  offset="1" style="stop-color:#6979C5"/>
</linearGradient>
<rect x="217.9" y="108.7" class="st76" width="3.9" height="9.7"/>
<linearGradient id="SVGID_77_" gradientUnits="userSpaceOnUse" x1="213.7365" y1="126.8222" x2="213.7365" y2="121.4438">
	<stop  offset="0" style="stop-color:#EDC7FF"/>
	<stop  offset="1" style="stop-color:#B06BF5"/>
</linearGradient>
<rect x="211.8" y="121.4" class="st77" width="3.9" height="5.4"/>
<linearGradient id="SVGID_78_" gradientUnits="userSpaceOnUse" x1="207.5654" y1="117.4369" x2="207.5654" y2="96.2272">
	<stop  offset="0" style="stop-color:#EDC7FF"/>
	<stop  offset="1" style="stop-color:#B06BF5"/>
</linearGradient>
<rect x="205.6" y="96.2" class="st78" width="3.9" height="21.2"/>
<linearGradient id="SVGID_79_" gradientUnits="userSpaceOnUse" x1="201.3942" y1="94.4416" x2="201.3942" y2="74.35">
	<stop  offset="0" style="stop-color:#EDC7FF"/>
	<stop  offset="1" style="stop-color:#B06BF5"/>
</linearGradient>
<rect x="199.4" y="74.3" class="st79" width="3.9" height="20.1"/>
<linearGradient id="SVGID_80_" gradientUnits="userSpaceOnUse" x1="195.2231" y1="77.834" x2="195.2231" y2="73.4788">
	<stop  offset="0" style="stop-color:#EDC7FF"/>
	<stop  offset="1" style="stop-color:#B06BF5"/>
</linearGradient>
<rect x="193.3" y="73.5" class="st80" width="3.9" height="4.4"/>
<linearGradient id="SVGID_81_" gradientUnits="userSpaceOnUse" x1="189.052" y1="85.4409" x2="189.052" y2="76.3243">
	<stop  offset="0" style="stop-color:#B3C5FF"/>
	<stop  offset="1" style="stop-color:#6979C5"/>
</linearGradient>
<rect x="187.1" y="76.3" class="st81" width="3.9" height="9.1"/>
<linearGradient id="SVGID_82_" gradientUnits="userSpaceOnUse" x1="182.8809" y1="82.9441" x2="182.8809" y2="72.724">
	<stop  offset="0" style="stop-color:#EDC7FF"/>
	<stop  offset="1" style="stop-color:#B06BF5"/>
</linearGradient>
<rect x="180.9" y="72.7" class="st82" width="3.9" height="10.2"/>
<linearGradient id="SVGID_83_" gradientUnits="userSpaceOnUse" x1="176.7097" y1="70.6336" x2="176.7097" y2="66.2202">
	<stop  offset="0" style="stop-color:#B3C5FF"/>
	<stop  offset="1" style="stop-color:#6979C5"/>
</linearGradient>
<rect x="174.7" y="66.2" class="st83" width="3.9" height="4.4"/>
<linearGradient id="SVGID_84_" gradientUnits="userSpaceOnUse" x1="170.5382" y1="80.7956" x2="170.5382" y2="73.4788">
	<stop  offset="0" style="stop-color:#B3C5FF"/>
	<stop  offset="1" style="stop-color:#6979C5"/>
</linearGradient>
<rect x="168.6" y="73.5" class="st84" width="3.9" height="7.3"/>
<linearGradient id="SVGID_85_" gradientUnits="userSpaceOnUse" x1="164.3671" y1="86.7186" x2="164.3671" y2="82.3635">
	<stop  offset="0" style="stop-color:#B3C5FF"/>
	<stop  offset="1" style="stop-color:#6979C5"/>
</linearGradient>
<rect x="162.4" y="82.4" class="st85" width="3.9" height="4.4"/>
<linearGradient id="SVGID_86_" gradientUnits="userSpaceOnUse" x1="158.1959" y1="82.9441" x2="158.1959" y2="75.2789">
	<stop  offset="0" style="stop-color:#EDC7FF"/>
	<stop  offset="1" style="stop-color:#B06BF5"/>
</linearGradient>
<rect x="156.2" y="75.3" class="st86" width="3.9" height="7.7"/>
<linearGradient id="SVGID_87_" gradientUnits="userSpaceOnUse" x1="152.0248" y1="87.9091" x2="152.0248" y2="81.3763">
	<stop  offset="0" style="stop-color:#B3C5FF"/>
	<stop  offset="1" style="stop-color:#6979C5"/>
</linearGradient>
<rect x="150.1" y="81.4" class="st87" width="3.9" height="6.5"/>
<linearGradient id="SVGID_88_" gradientUnits="userSpaceOnUse" x1="145.8537" y1="94.4416" x2="145.8537" y2="85.4409">
	<stop  offset="0" style="stop-color:#EDC7FF"/>
	<stop  offset="1" style="stop-color:#B06BF5"/>
</linearGradient>
<rect x="143.9" y="85.4" class="st88" width="3.9" height="9"/>
<linearGradient id="SVGID_89_" gradientUnits="userSpaceOnUse" x1="139.6825" y1="99.9509" x2="139.6825" y2="97.4249">
	<stop  offset="0" style="stop-color:#B3C5FF"/>
	<stop  offset="1" style="stop-color:#6979C5"/>
</linearGradient>
<rect x="137.7" y="97.4" class="st89" width="3.9" height="2.5"/>
<linearGradient id="SVGID_90_" gradientUnits="userSpaceOnUse" x1="133.5114" y1="103.6745" x2="133.5114" y2="96.2272">
	<stop  offset="0" style="stop-color:#EDC7FF"/>
	<stop  offset="1" style="stop-color:#B06BF5"/>
</linearGradient>
<rect x="131.6" y="96.2" class="st90" width="3.9" height="7.4"/>
<linearGradient id="SVGID_91_" gradientUnits="userSpaceOnUse" x1="127.3403" y1="106.3314" x2="127.3403" y2="98.7532">
	<stop  offset="0" style="stop-color:#B3C5FF"/>
	<stop  offset="1" style="stop-color:#6979C5"/>
</linearGradient>
<rect x="125.4" y="98.8" class="st91" width="3.9" height="7.6"/>
<linearGradient id="SVGID_92_" gradientUnits="userSpaceOnUse" x1="121.1691" y1="110.643" x2="121.1691" y2="105.0682">
	<stop  offset="0" style="stop-color:#EDC7FF"/>
	<stop  offset="1" style="stop-color:#B06BF5"/>
</linearGradient>
<rect x="119.2" y="105.1" class="st92" width="3.9" height="5.6"/>
<linearGradient id="SVGID_93_" gradientUnits="userSpaceOnUse" x1="114.998" y1="100.1036" x2="114.998" y2="96.2272">
	<stop  offset="0" style="stop-color:#B3C5FF"/>
	<stop  offset="1" style="stop-color:#6979C5"/>
</linearGradient>
<rect x="113" y="96.2" class="st93" width="3.9" height="3.9"/>
<linearGradient id="SVGID_94_" gradientUnits="userSpaceOnUse" x1="108.8269" y1="107.2022" x2="108.8269" y2="99.1887">
	<stop  offset="0" style="stop-color:#B3C5FF"/>
	<stop  offset="1" style="stop-color:#6979C5"/>
</linearGradient>
<rect x="106.9" y="99.2" class="st94" width="3.9" height="8"/>
<linearGradient id="SVGID_95_" gradientUnits="userSpaceOnUse" x1="102.6557" y1="113.0599" x2="102.6557" y2="110.8171">
	<stop  offset="0" style="stop-color:#B3C5FF"/>
	<stop  offset="1" style="stop-color:#6979C5"/>
</linearGradient>
<rect x="100.7" y="110.8" class="st95" width="3.9" height="2.2"/>
<linearGradient id="SVGID_96_" gradientUnits="userSpaceOnUse" x1="96.4846" y1="115.8254" x2="96.4846" y2="113.0599">
	<stop  offset="0" style="stop-color:#EDC7FF"/>
	<stop  offset="1" style="stop-color:#B06BF5"/>
</linearGradient>
<rect x="94.5" y="113.1" class="st96" width="3.9" height="2.8"/>
<linearGradient id="SVGID_97_" gradientUnits="userSpaceOnUse" x1="90.3134" y1="130.6186" x2="90.3134" y2="117.4369">
	<stop  offset="0" style="stop-color:#B3C5FF"/>
	<stop  offset="1" style="stop-color:#6979C5"/>
</linearGradient>
<rect x="88.4" y="117.4" class="st97" width="3.9" height="13.2"/>
<linearGradient id="SVGID_98_" gradientUnits="userSpaceOnUse" x1="84.1423" y1="134.7415" x2="84.1423" y2="130.967">
	<stop  offset="0" style="stop-color:#B3C5FF"/>
	<stop  offset="1" style="stop-color:#6979C5"/>
</linearGradient>
<rect x="82.2" y="131" class="st98" width="3.9" height="3.8"/>
<linearGradient id="SVGID_99_" gradientUnits="userSpaceOnUse" x1="77.9712" y1="139.5032" x2="77.9712" y2="135.9611">
	<stop  offset="0" style="stop-color:#B3C5FF"/>
	<stop  offset="1" style="stop-color:#6979C5"/>
</linearGradient>
<rect x="76" y="136" class="st99" width="3.9" height="3.5"/>
<linearGradient id="SVGID_100_" gradientUnits="userSpaceOnUse" x1="71.8" y1="140.9548" x2="71.8" y2="134.7415">
	<stop  offset="0" style="stop-color:#EDC7FF"/>
	<stop  offset="1" style="stop-color:#B06BF5"/>
</linearGradient>
<rect x="69.8" y="134.7" class="st100" width="3.9" height="6.2"/>
<linearGradient id="SVGID_101_" gradientUnits="userSpaceOnUse" x1="65.629" y1="144.1486" x2="65.629" y2="138.7771">
	<stop  offset="0" style="stop-color:#B3C5FF"/>
	<stop  offset="1" style="stop-color:#6979C5"/>
</linearGradient>
<rect x="63.7" y="138.8" class="st101" width="3.9" height="5.4"/>
<linearGradient id="SVGID_102_" gradientUnits="userSpaceOnUse" x1="59.4578" y1="159.1301" x2="59.4578" y2="152.0461">
	<stop  offset="0" style="stop-color:#B3C5FF"/>
	<stop  offset="1" style="stop-color:#6979C5"/>
</linearGradient>
<rect x="57.5" y="152" class="st102" width="3.9" height="7.1"/>
<linearGradient id="SVGID_103_" gradientUnits="userSpaceOnUse" x1="53.2866" y1="157.6205" x2="53.2866" y2="152.5104">
	<stop  offset="0" style="stop-color:#EDC7FF"/>
	<stop  offset="1" style="stop-color:#B06BF5"/>
</linearGradient>
<rect x="51.3" y="152.5" class="st103" width="3.9" height="5.1"/>
<linearGradient id="SVGID_104_" gradientUnits="userSpaceOnUse" x1="47.1156" y1="155.0654" x2="47.1156" y2="142.6967">
	<stop  offset="0" style="stop-color:#EDC7FF"/>
	<stop  offset="1" style="stop-color:#B06BF5"/>
</linearGradient>
<rect x="45.2" y="142.7" class="st104" width="3.9" height="12.4"/>
<linearGradient id="SVGID_105_" gradientUnits="userSpaceOnUse" x1="40.9444" y1="145.8907" x2="40.9444" y2="137.0933">
	<stop  offset="0" style="stop-color:#B3C5FF"/>
	<stop  offset="1" style="stop-color:#6979C5"/>
</linearGradient>
<rect x="39" y="137.1" class="st105" width="3.9" height="8.8"/>
<linearGradient id="SVGID_106_" gradientUnits="userSpaceOnUse" x1="34.7733" y1="138.7771" x2="34.7733" y2="135.4091">
	<stop  offset="0" style="stop-color:#EDC7FF"/>
	<stop  offset="1" style="stop-color:#B06BF5"/>
</linearGradient>
<rect x="32.8" y="135.4" class="st106" width="3.9" height="3.4"/>
<linearGradient id="SVGID_107_" gradientUnits="userSpaceOnUse" x1="28.6021" y1="143.1702" x2="28.6021" y2="127.6483">
	<stop  offset="0" style="stop-color:#B3C5FF"/>
	<stop  offset="1" style="stop-color:#6979C5"/>
</linearGradient>
<rect x="28.4" y="127.6" class="st107" width="0.4" height="15.5"/>
<linearGradient id="SVGID_108_" gradientUnits="userSpaceOnUse" x1="28.6021" y1="137.7609" x2="28.6021" y2="133.0573">
	<stop  offset="0" style="stop-color:#B3C5FF"/>
	<stop  offset="1" style="stop-color:#6979C5"/>
</linearGradient>
<rect x="26.6" y="133.1" class="st108" width="3.9" height="4.7"/>
<linearGradient id="SVGID_109_" gradientUnits="userSpaceOnUse" x1="22.431" y1="139.6483" x2="22.431" y2="133.0573">
	<stop  offset="0" style="stop-color:#EDC7FF"/>
	<stop  offset="1" style="stop-color:#B06BF5"/>
</linearGradient>
<rect x="20.5" y="133.1" class="st109" width="3.9" height="6.6"/>
<linearGradient id="SVGID_110_" gradientUnits="userSpaceOnUse" x1="16.2599" y1="145.4841" x2="16.2599" y2="141.3031">
	<stop  offset="0" style="stop-color:#B3C5FF"/>
	<stop  offset="1" style="stop-color:#6979C5"/>
</linearGradient>
<rect x="14.3" y="141.3" class="st110" width="3.9" height="4.2"/>
<linearGradient id="SVGID_111_" gradientUnits="userSpaceOnUse" x1="10.0887" y1="145.4841" x2="10.0887" y2="138.1673">
	<stop  offset="0" style="stop-color:#EDC7FF"/>
	<stop  offset="1" style="stop-color:#B06BF5"/>
</linearGradient>
<rect x="8.1" y="138.2" class="st111" width="3.9" height="7.3"/>
<rect x="9.8" y="7.5" class="st112" width="338.7" height="225.8"/>
<path class="st113" d="M50.9,116.4H26.4c-1.5,0-2.8-1.2-2.8-2.8v-4.3c0-1.5,1.2-2.8,2.8-2.8h24.5c1.5,0,2.8,1.2,2.8,2.8v4.3
	C53.6,115.1,52.4,116.4,50.9,116.4z"/>
<polygon class="st113" points="38.6,119.2 41.7,114.6 35.6,114.6 "/>
<path d="M30.2,113.4c-0.3-0.1-0.6-0.2-0.8-0.3l0.4-0.8c0.2,0.1,0.4,0.2,0.6,0.3c0.2,0.1,0.5,0.1,0.7,0.1c0.4,0,0.7-0.1,0.7-0.3
	c0-0.1-0.1-0.2-0.2-0.3c-0.1-0.1-0.3-0.1-0.6-0.2c-0.3-0.1-0.6-0.1-0.8-0.2c-0.2-0.1-0.4-0.2-0.5-0.4c-0.1-0.2-0.2-0.4-0.2-0.7
	c0-0.2,0.1-0.5,0.2-0.7c0.1-0.2,0.3-0.4,0.6-0.5c0.3-0.1,0.6-0.2,1-0.2c0.3,0,0.5,0,0.8,0.1c0.3,0.1,0.5,0.1,0.7,0.3l-0.4,0.9
	c-0.4-0.2-0.8-0.3-1.1-0.3c-0.2,0-0.4,0-0.5,0.1c-0.1,0.1-0.2,0.2-0.2,0.3c0,0.1,0.1,0.2,0.2,0.2c0.1,0.1,0.3,0.1,0.6,0.2
	c0.3,0.1,0.6,0.1,0.8,0.2c0.2,0.1,0.4,0.2,0.5,0.4c0.1,0.2,0.2,0.4,0.2,0.7c0,0.2-0.1,0.5-0.2,0.7c-0.1,0.2-0.3,0.4-0.6,0.5
	c-0.3,0.1-0.6,0.2-1,0.2C30.9,113.5,30.6,113.5,30.2,113.4z"/>
<path d="M37.9,112.6v0.9h-3.3v-4.1h3.2v0.9h-2v0.7h1.8v0.9h-1.8v0.7H37.9z"/>
<path d="M39.6,109.4h1.1v3.1h1.9v0.9h-3.1V109.4z"/>
<path d="M44.3,109.4h1.1v3.1h1.9v0.9h-3.1V109.4z"/>
<path class="st113" d="M182.9,59.9h-24.5c-1.5,0-2.8-1.2-2.8-2.8v-4.3c0-1.5,1.2-2.8,2.8-2.8h24.5c1.5,0,2.8,1.2,2.8,2.8v4.3
	C185.7,58.7,184.5,59.9,182.9,59.9z"/>
<polygon class="st113" points="170.7,62.8 173.8,58.1 167.6,58.1 "/>
<path d="M162.3,57c-0.3-0.1-0.6-0.2-0.8-0.3l0.4-0.8c0.2,0.1,0.4,0.2,0.6,0.3c0.2,0.1,0.5,0.1,0.7,0.1c0.4,0,0.7-0.1,0.7-0.3
	c0-0.1-0.1-0.2-0.2-0.3c-0.1-0.1-0.3-0.1-0.6-0.2c-0.3-0.1-0.6-0.1-0.8-0.2c-0.2-0.1-0.4-0.2-0.5-0.4c-0.1-0.2-0.2-0.4-0.2-0.7
	c0-0.2,0.1-0.5,0.2-0.7c0.1-0.2,0.3-0.4,0.6-0.5c0.3-0.1,0.6-0.2,1-0.2c0.3,0,0.5,0,0.8,0.1c0.3,0.1,0.5,0.1,0.7,0.3l-0.4,0.9
	c-0.4-0.2-0.8-0.3-1.1-0.3c-0.2,0-0.4,0-0.5,0.1c-0.1,0.1-0.2,0.2-0.2,0.3c0,0.1,0.1,0.2,0.2,0.2c0.1,0.1,0.3,0.1,0.6,0.2
	c0.3,0.1,0.6,0.1,0.8,0.2s0.4,0.2,0.5,0.4c0.1,0.2,0.2,0.4,0.2,0.7c0,0.2-0.1,0.5-0.2,0.7c-0.1,0.2-0.3,0.4-0.6,0.5
	c-0.3,0.1-0.6,0.2-1,0.2C162.9,57.1,162.6,57.1,162.3,57z"/>
<path d="M169.9,56.1V57h-3.3V53h3.2v0.9h-2v0.7h1.8v0.9h-1.8v0.7H169.9z"/>
<path d="M171.7,53h1.1v3.1h1.9V57h-3.1V53z"/>
<path d="M176.3,53h1.1v3.1h1.9V57h-3.1V53z"/>
<path class="st113" d="M322,58.2h-24.5c-1.5,0-2.8-1.2-2.8-2.8v-4.3c0-1.5,1.2-2.8,2.8-2.8H322c1.5,0,2.8,1.2,2.8,2.8v4.3
	C324.8,57,323.6,58.2,322,58.2z"/>
<polygon class="st113" points="309.8,61.1 312.9,56.4 306.7,56.4 "/>
<path d="M301.4,55.3c-0.3-0.1-0.6-0.2-0.8-0.3l0.4-0.8c0.2,0.1,0.4,0.2,0.6,0.3c0.2,0.1,0.5,0.1,0.7,0.1c0.4,0,0.7-0.1,0.7-0.3
	c0-0.1-0.1-0.2-0.2-0.3c-0.1-0.1-0.3-0.1-0.6-0.2c-0.3-0.1-0.6-0.1-0.8-0.2c-0.2-0.1-0.4-0.2-0.5-0.4c-0.1-0.2-0.2-0.4-0.2-0.7
	c0-0.2,0.1-0.5,0.2-0.7c0.1-0.2,0.3-0.4,0.6-0.5c0.3-0.1,0.6-0.2,1-0.2c0.3,0,0.5,0,0.8,0.1c0.3,0.1,0.5,0.1,0.7,0.3l-0.4,0.9
	c-0.4-0.2-0.8-0.3-1.1-0.3c-0.2,0-0.4,0-0.5,0.1c-0.1,0.1-0.2,0.2-0.2,0.3c0,0.1,0.1,0.2,0.2,0.2c0.1,0.1,0.3,0.1,0.6,0.2
	c0.3,0.1,0.6,0.1,0.8,0.2c0.2,0.1,0.4,0.2,0.5,0.4c0.1,0.2,0.2,0.4,0.2,0.7c0,0.2-0.1,0.5-0.2,0.7c-0.1,0.2-0.3,0.4-0.6,0.5
	c-0.3,0.1-0.6,0.2-1,0.2C302,55.4,301.7,55.4,301.4,55.3z"/>
<path d="M309,54.4v0.9h-3.3v-4.1h3.2v0.9h-2v0.7h1.8v0.9h-1.8v0.7H309z"/>
<path d="M310.8,51.3h1.1v3.1h1.9v0.9h-3.1V51.3z"/>
<path d="M315.4,51.3h1.1v3.1h1.9v0.9h-3.1V51.3z"/>
<path class="st10" d="M108,122.7h24.5c1.5,0,2.8,1.2,2.8,2.8v4.3c0,1.5-1.2,2.8-2.8,2.8H108c-1.5,0-2.8-1.2-2.8-2.8v-4.3
	C105.2,123.9,106.5,122.7,108,122.7z"/>
<polygon class="st10" points="120.2,119.8 117.2,124.4 123.3,124.4 "/>
<path d="M116.5,127.8c0.1,0.2,0.2,0.4,0.2,0.6c0,0.4-0.1,0.6-0.4,0.8c-0.3,0.2-0.7,0.3-1.2,0.3h-2.2v-4.1h2.1c0.5,0,0.9,0.1,1.2,0.3
	c0.3,0.2,0.4,0.4,0.4,0.8c0,0.2,0,0.4-0.1,0.5c-0.1,0.2-0.2,0.3-0.4,0.4C116.2,127.5,116.3,127.6,116.5,127.8z M113.9,126.3v0.8h0.8
	c0.4,0,0.6-0.1,0.6-0.4c0-0.3-0.2-0.4-0.6-0.4H113.9z M115.5,128.3c0-0.3-0.2-0.4-0.6-0.4h-1v0.8h1
	C115.3,128.7,115.5,128.6,115.5,128.3z"/>
<path d="M118.8,129.1c-0.3-0.3-0.5-0.8-0.5-1.4v-2.2h1.1v2.2c0,0.6,0.3,1,0.8,1c0.5,0,0.8-0.3,0.8-1v-2.2h1.1v2.2
	c0,0.6-0.2,1.1-0.5,1.4c-0.3,0.3-0.8,0.5-1.4,0.5C119.6,129.6,119.2,129.4,118.8,129.1z"/>
<path d="M126.1,128.1v1.5H125v-1.5l-1.5-2.6h1.2l1,1.6l1-1.6h1.1L126.1,128.1z"/>
<path class="st10" d="M201.9,140.3h24.5c1.5,0,2.8,1.2,2.8,2.8v4.3c0,1.5-1.2,2.8-2.8,2.8h-24.5c-1.5,0-2.8-1.2-2.8-2.8V143
	C199.2,141.5,200.4,140.3,201.9,140.3z"/>
<polygon class="st10" points="214.2,137.4 211.1,142.1 217.3,142.1 "/>
<path d="M210.4,145.4c0.1,0.2,0.2,0.4,0.2,0.6c0,0.4-0.1,0.6-0.4,0.8c-0.3,0.2-0.7,0.3-1.2,0.3h-2.2v-4.1h2.1c0.5,0,0.9,0.1,1.2,0.3
	c0.3,0.2,0.4,0.4,0.4,0.8c0,0.2,0,0.4-0.1,0.5c-0.1,0.2-0.2,0.3-0.4,0.4C210.1,145.1,210.3,145.2,210.4,145.4z M207.9,143.9v0.8h0.8
	c0.4,0,0.6-0.1,0.6-0.4c0-0.3-0.2-0.4-0.6-0.4H207.9z M209.4,145.9c0-0.3-0.2-0.4-0.6-0.4h-1v0.8h1
	C209.2,146.3,209.4,146.2,209.4,145.9z"/>
<path d="M212.8,146.7c-0.3-0.3-0.5-0.8-0.5-1.4v-2.2h1.1v2.2c0,0.6,0.3,1,0.8,1c0.5,0,0.8-0.3,0.8-1v-2.2h1.1v2.2
	c0,0.6-0.2,1.1-0.5,1.4c-0.3,0.3-0.8,0.5-1.4,0.5C213.6,147.2,213.1,147.1,212.8,146.7z"/>
<path d="M220.1,145.7v1.5h-1.1v-1.5l-1.5-2.6h1.2l1,1.6l1-1.6h1.1L220.1,145.7z"/>
<path class="st10" d="M275.7,107.5h24.5c1.5,0,2.8,1.2,2.8,2.8v4.3c0,1.5-1.2,2.8-2.8,2.8h-24.5c-1.5,0-2.8-1.2-2.8-2.8v-4.3
	C273,108.7,274.2,107.5,275.7,107.5z"/>
<polygon class="st10" points="288,104.6 284.9,109.2 291.1,109.2 "/>
<path d="M284.2,112.6c0.1,0.2,0.2,0.4,0.2,0.6c0,0.4-0.1,0.6-0.4,0.8c-0.3,0.2-0.7,0.3-1.2,0.3h-2.2v-4.1h2.1c0.5,0,0.9,0.1,1.2,0.3
	c0.3,0.2,0.4,0.4,0.4,0.8c0,0.2,0,0.4-0.1,0.5c-0.1,0.2-0.2,0.3-0.4,0.4C283.9,112.3,284.1,112.4,284.2,112.6z M281.7,111.1v0.8h0.8
	c0.4,0,0.6-0.1,0.6-0.4c0-0.3-0.2-0.4-0.6-0.4H281.7z M283.2,113.1c0-0.3-0.2-0.4-0.6-0.4h-1v0.8h1
	C283,113.5,283.2,113.4,283.2,113.1z"/>
<path d="M286.6,113.9c-0.3-0.3-0.5-0.8-0.5-1.4v-2.2h1.1v2.2c0,0.6,0.3,1,0.8,1c0.5,0,0.8-0.3,0.8-1v-2.2h1.1v2.2
	c0,0.6-0.2,1.1-0.5,1.4c-0.3,0.3-0.8,0.5-1.4,0.5C287.4,114.4,286.9,114.2,286.6,113.9z"/>
<path d="M293.9,112.9v1.5h-1.1v-1.5l-1.5-2.6h1.2l1,1.6l1-1.6h1.1L293.9,112.9z"/>
<g>
	<path class="st114" d="M272.1,182.1c0,0.1,0,0.1-0.1,0.1c-0.1,0-0.7,0-1.8-0.1c0,1,0,1.7,0,2.1c0,0.5,0,1.2,0.1,2.1
		s0.1,1.6,0.1,2.1c0,0.1,0,0.1-0.1,0.1c0,0-0.1,0-0.2,0c-0.2,0-0.6,0-1,0c-0.5,0-0.9,0-1.1,0c-0.1,0-0.2-0.1-0.2-0.2
		c0-0.5,0-1.2,0.1-2.1s0.1-1.6,0.1-2.1c0-0.3,0-1,0-2c-0.8,0.1-1.4,0.1-1.9,0.1c-0.1,0-0.1,0-0.1-0.1c0-0.1,0-0.2,0.1-0.5
		c0.1-0.3,0.1-0.4,0.1-0.5c0-0.2,0-0.4,0-0.6c0-0.3,0.1-0.4,0.1-0.4c0,0,0,0,0.1,0c0.6,0.1,1.6,0.1,2.8,0.1c0.4,0,1,0,1.9-0.1
		c0.5,0,0.8-0.1,0.8-0.1c0.1,0,0.1,0,0.1,0s0,0,0,0.1c0,0.1,0,0.3,0,0.4c0,0.2,0,0.4,0,0.4c0,0.1,0,0.2,0,0.4S272.1,182,272.1,182.1
		z"/>
	<path class="st114" d="M279.7,188.5c0,0,0,0-0.1,0.1c-0.1,0-0.5,0-1.1,0c-0.5,0-0.9,0-1,0c-0.1,0-0.1,0-0.1,0c0,0-0.1-0.1-0.1-0.1
		c-0.1-0.2-0.1-0.4-0.3-0.7c-0.2-0.4-0.4-1-0.7-1.7c-0.1-0.2-0.2-0.2-0.5-0.3c0.1,0-0.1,0-0.6,0c-0.1,0-0.1,0.1-0.1,0.3
		c0,0.3,0,0.7,0.1,1.2s0.1,0.9,0.1,1.2c0,0.1,0,0.1-0.1,0.1c-0.1,0-0.1,0-0.2,0c-0.2,0-0.6,0-1.1,0c-0.6,0-0.9,0-1,0
		s-0.2-0.1-0.2-0.2c0-0.4,0-1.1,0.1-1.9s0.1-1.5,0.1-2c0-1.7,0-2.9-0.1-3.9l0-0.1c0-0.1,0.1-0.1,0.2-0.1s0.7,0,1.8-0.1
		c0.7,0,1.3,0,1.7,0c0.9,0,1.6,0.2,2.2,0.6c0.6,0.5,1,1.1,1,2c0,0.6-0.1,1-0.2,1.4s-0.5,0.7-0.9,1c-0.1,0.1-0.1,0.1-0.1,0.2
		c0,0,0.2,0.5,0.7,1.5S279.7,188.4,279.7,188.5z M277.3,183.2c0-0.5-0.2-0.8-0.5-1c-0.2-0.1-0.6-0.2-1.1-0.2c-0.4,0-0.6,0.1-0.6,0.2
		c0,0.1,0,0.5,0,1.1c0,0.1,0,0.2,0,0.4s0,0.3,0,0.4c0,0,0.1,0,0.2,0.1c0.2,0,0.5,0.1,0.8,0.1C276.8,184.2,277.3,183.9,277.3,183.2z"
		/>
	<path class="st114" d="M288.1,188.4c0,0.1,0,0.1-0.1,0.1c-0.1,0-0.5,0-1.1,0c-0.6,0-0.9,0-1.1,0c-0.1,0-0.2-0.1-0.3-0.3
		c-0.1-0.6-0.2-0.9-0.3-0.9c-0.1,0-0.6,0-1.6,0c-0.7,0-1,0-1.1,0.1c-0.1,0.1-0.1,0.3-0.2,0.6c-0.1,0.3-0.2,0.5-0.3,0.5
		c-0.1,0-0.6,0-1.3,0c-0.6,0-0.9-0.1-0.9-0.2c0-0.1,0.4-1.3,1.3-3.7c1-2.6,1.5-4,1.6-4.3c0-0.1,0.1-0.2,0.2-0.2c0.1,0,0.3,0,0.5,0
		s0.4,0,0.5,0c0.1,0,0.3,0,0.5,0s0.4,0,0.5,0c0.1,0,0.1,0.1,0.2,0.2c0.2,0.4,0.8,1.8,1.7,4.2C287.7,187,288.1,188.3,288.1,188.4z
		 M284,183c-0.1,0.2-0.2,0.5-0.4,1.1c-0.2,0.6-0.3,1-0.3,1.1c0,0.1,0.1,0.1,0.4,0.1c0.1,0,0.3,0,0.6,0c0.3,0,0.4,0,0.4-0.1
		c0,0,0,0,0-0.1c0-0.1-0.1-0.5-0.3-1.1C284.2,183.6,284,183.2,284,183z"/>
	<path class="st114" d="M296.4,184.4c0,1.1-0.4,2.1-1.1,3c-0.7,0.8-1.6,1.2-2.7,1.2c-0.2,0-0.8,0-1.9,0c-0.2,0-0.5,0-0.9,0
		s-0.7,0-0.9,0c-0.1,0-0.2,0-0.2-0.1c0-0.4,0-1.1,0-1.9s0-1.5,0-1.9c0-0.4,0-1.1,0-2s0-1.6,0-2c0-0.1,0.1-0.1,0.2-0.1
		c0.3,0,0.7,0,1.4,0c1.2,0,2,0,2.3,0.1c0.9,0.1,1.7,0.3,2.2,0.7c0.5,0.4,0.9,0.8,1.2,1.5C296.2,183.1,296.4,183.7,296.4,184.4z
		 M294.1,184.4c0-0.7-0.2-1.2-0.6-1.6c-0.4-0.4-0.9-0.7-1.6-0.7c-0.6,0-0.9,0.1-0.9,0.2c0,0.2,0,0.6,0,1s0,0.8,0,1c0,0.2,0,0.6,0,1
		s0,0.8,0,1c0,0.2,0.3,0.3,0.9,0.3c0.7,0,1.2-0.2,1.6-0.7C293.9,185.6,294.1,185.1,294.1,184.4z"/>
	<path class="st114" d="M304.9,184.4c0,1.1-0.4,2.1-1.1,3c-0.7,0.8-1.6,1.2-2.7,1.2c-0.2,0-0.8,0-1.9,0c-0.2,0-0.5,0-0.9,0
		s-0.7,0-0.9,0c-0.1,0-0.2,0-0.2-0.1c0-0.4,0-1.1,0-1.9s0-1.5,0-1.9c0-0.4,0-1.1,0-2s0-1.6,0-2c0-0.1,0.1-0.1,0.2-0.1
		c0.3,0,0.7,0,1.4,0c1.2,0,2,0,2.3,0.1c0.9,0.1,1.7,0.3,2.2,0.7c0.5,0.4,0.9,0.8,1.2,1.5C304.8,183.1,304.9,183.7,304.9,184.4z
		 M302.7,184.4c0-0.7-0.2-1.2-0.6-1.6c-0.4-0.4-0.9-0.7-1.6-0.7c-0.6,0-0.9,0.1-0.9,0.2c0,0.2,0,0.6,0,1s0,0.8,0,1c0,0.2,0,0.6,0,1
		s0,0.8,0,1c0,0.2,0.3,0.3,0.9,0.3c0.7,0,1.2-0.2,1.6-0.7C302.5,185.6,302.7,185.1,302.7,184.4z"/>
	<path class="st114" d="M308.2,184.2c0,0.5,0,1.2,0,2.1s0,1.6,0,2.1c0,0.1,0,0.1-0.1,0.1c0,0-0.1,0-0.2,0c-0.3,0-0.6,0-1,0
		c-0.6,0-0.9,0-1.1,0c-0.1,0-0.2-0.1-0.2-0.2c0,0.1,0-0.3,0.1-1c0.1-1.6,0.1-2.6,0.1-3.1c0-0.4,0-1,0-1.9s0-1.5,0-1.9
		c0-0.1,0-0.1,0.1-0.1c0.1,0,0.3,0,0.5,0s0.4,0,0.5,0s0.3,0,0.5,0s0.4,0,0.5,0c0.1,0,0.2,0,0.2,0.1c0,0.4,0,1-0.1,1.9
		S308.2,183.8,308.2,184.2z"/>
	<path class="st114" d="M317.2,180.5c0,0.4,0,1.1-0.1,2s-0.1,1.6-0.1,2v3.9c0,0.1-0.1,0.2-0.2,0.2c-0.1,0-0.2,0-0.4,0s-0.3,0-0.4,0
		c-0.1,0-0.3,0-0.5,0s-0.4,0-0.5,0c-0.1,0-0.2-0.1-0.3-0.2c-0.3-0.4-0.9-1.2-1.9-2.5c-0.3-0.4-0.7-0.9-1.2-1.6c0,0,0,0-0.1-0.1
		c0,0,0,0.1,0,0.1c0,0.5,0,1.1,0,2s0,1.6,0,2c0,0.1-0.1,0.2-0.2,0.2h-2c-0.1,0-0.2-0.1-0.2-0.2c0-0.4,0-1.1,0.1-1.9s0.1-1.5,0.1-1.9
		c0-0.4,0-1.1-0.1-2s-0.1-1.6-0.1-2c0-0.1,0.1-0.1,0.2-0.1c0.2,0,0.5,0,0.8,0c0.1,0,0.2,0,0.5-0.1c0.2,0,0.3-0.1,0.5-0.1
		c0,0,0.1,0.1,0.2,0.2l2.2,3c0.2,0.3,0.5,0.7,0.9,1.2c0.1,0.1,0.2,0.2,0.3,0.2c0.1,0,0.1-0.2,0.1-0.5c0-0.4,0-1-0.1-1.9
		s-0.1-1.4-0.1-1.9c0-0.1,0-0.2,0.1-0.2c0.2,0,0.6,0,1.1,0s0.8,0,1.1,0C317.2,180.3,317.2,180.4,317.2,180.5z"/>
	<path class="st114" d="M326,188.3c0,0.1,0,0.2-0.2,0.2c-0.1,0-0.3,0-0.6-0.1s-0.6-0.1-0.7-0.2c-0.8,0.3-1.6,0.5-2.3,0.5
		c-1.2,0-2.2-0.4-3-1.2c-0.8-0.8-1.1-1.8-1.1-3c0-1.2,0.4-2.3,1.1-3.1c0.8-0.8,1.8-1.3,3-1.3c0.6,0,1.2,0.1,1.7,0.3
		c0.6,0.3,1,0.6,1.3,1.1c0.1,0.1,0.1,0.2,0.1,0.2c0,0.1-0.2,0.4-0.5,0.8s-0.6,0.7-0.7,0.7c0,0-0.1-0.1-0.3-0.2
		c-0.2-0.2-0.4-0.3-0.6-0.4c-0.3-0.2-0.6-0.2-1-0.2c-0.6,0-1.1,0.2-1.4,0.7c-0.3,0.4-0.5,0.9-0.5,1.5c0,0.6,0.2,1.1,0.5,1.5
		c0.3,0.4,0.8,0.6,1.5,0.6c0.4,0,0.8-0.1,1.3-0.3c0-0.1,0-0.5-0.1-1c-0.1-0.4-0.1-0.7-0.1-1c0-0.1,0-0.1,0.1-0.1c0,0,0.1,0,0.1,0
		c0.1,0,0.3,0,0.5,0s0.4,0,0.5,0c0.1,0,0.3,0,0.6,0s0.4,0,0.6,0c0.1,0,0.1,0.1,0.1,0.2c0,0.2,0,0.5,0,0.8s0,0.7,0,0.8
		C325.9,186.5,326,187.3,326,188.3L326,188.3z"/>
</g>
<g>
	<g>
		<path class="st114" d="M274.9,211.6c0,1-0.1,1.7-0.4,2c-0.4,0.7-1.5,1-3.3,1c-0.8,0-1.4-0.1-1.8-0.2c-0.7-0.2-1.1-0.6-1.3-1.1
			c-0.1-0.3-0.2-0.8-0.2-1.4c0-0.2,0-0.4,0-0.7s0-0.6,0-0.7c0-0.5,0-1.1-0.1-2s-0.1-1.6-0.1-2c0-0.1,0-0.1,0.1-0.1
			c0.2,0,0.6,0,1.1,0s0.8,0,1.1,0c0.1,0,0.1,0,0.1,0.1c0,0.5,0,1.3,0,2.3s0,1.8,0,2.3c0,0.6,0.1,1,0.2,1.2c0.2,0.3,0.5,0.4,1.1,0.4
			c0.8,0,1.2-0.4,1.2-1.2c0-0.6,0-1.4,0-2.5s0-2,0-2.5c0-0.1,0-0.2,0.1-0.2c0.2,0,0.6,0,1,0s0.8,0,1,0c0.1,0,0.2,0,0.2,0.1
			c0,0.4,0,1.1-0.1,2s-0.1,1.6-0.1,2c0,0.1,0,0.3,0,0.6S274.9,211.5,274.9,211.6z"/>
		<path class="st114" d="M283.9,206.4c0,0.4,0,1.1-0.1,2s-0.1,1.6-0.1,2v3.9c0,0.1-0.1,0.2-0.2,0.2c-0.1,0-0.2,0-0.4,0s-0.3,0-0.4,0
			c-0.1,0-0.3,0-0.5,0s-0.4,0-0.5,0c-0.1,0-0.2-0.1-0.3-0.2c-0.3-0.4-0.9-1.2-1.9-2.5c-0.3-0.4-0.7-0.9-1.2-1.6c0,0,0,0-0.1-0.1
			c0,0,0,0.1,0,0.1c0,0.5,0,1.1,0,2s0,1.6,0,2c0,0.1-0.1,0.2-0.2,0.2h-2c-0.1,0-0.2-0.1-0.2-0.2c0-0.4,0-1.1,0.1-1.9
			s0.1-1.5,0.1-1.9c0-0.4,0-1.1-0.1-2s-0.1-1.6-0.1-2c0-0.1,0.1-0.1,0.2-0.1c0.2,0,0.5,0,0.8,0c0.1,0,0.2,0,0.5-0.1
			c0.2,0,0.3-0.1,0.5-0.1c0,0,0.1,0.1,0.2,0.2l2.2,3c0.2,0.3,0.5,0.7,0.9,1.2c0.1,0.1,0.2,0.2,0.3,0.2c0.1,0,0.1-0.2,0.1-0.5
			c0-0.4,0-1-0.1-1.9s-0.1-1.4-0.1-1.9c0-0.1,0-0.2,0.1-0.2c0.2,0,0.6,0,1.1,0s0.8,0,1.1,0C283.9,206.3,283.9,206.3,283.9,206.4z"/>
		<path class="st114" d="M287.4,210.1c0,0.5,0,1.2,0,2.1s0,1.6,0,2.1c0,0.1,0,0.1-0.1,0.1c0,0-0.1,0-0.2,0c-0.3,0-0.6,0-1,0
			c-0.6,0-0.9,0-1.1,0c-0.1,0-0.2-0.1-0.2-0.2c0,0.1,0-0.3,0.1-1c0.1-1.6,0.1-2.6,0.1-3.1c0-0.4,0-1,0-1.9s0-1.5,0-1.9
			c0-0.1,0-0.1,0.1-0.1c0.1,0,0.3,0,0.5,0s0.4,0,0.5,0s0.3,0,0.5,0s0.4,0,0.5,0c0.1,0,0.2,0,0.2,0.1c0,0.4,0,1-0.1,1.9
			S287.4,209.7,287.4,210.1z"/>
		<path class="st114" d="M294,214.6c-0.3,0-0.8,0-1.3,0c-0.7,0-1.1,0-1.3,0l-1.8,0c-0.2,0-0.4,0-0.8,0c-0.1,0-0.2-0.1-0.2-0.2
			c0-0.4,0-1.1,0-1.9s0-1.5,0-1.9c0-0.5,0-1.1,0-2s0-1.6,0-2c0-0.1,0.1-0.1,0.2-0.1s0.3,0,0.5,0s0.4,0,0.5,0c0.1,0,0.3,0,0.6,0
			s0.4,0,0.6,0c0.1,0,0.1,0,0.1,0.1l0,0.1c0,0.7-0.1,1.8-0.2,3.3l0,1.5c0,0.5,0,0.9,0,1.1c0,0,0,0.1,0,0.1s0,0.1,0.1,0.1
			c0,0,0.1,0,0.2,0c0.4,0,0.9,0,1.6-0.1s1.2-0.1,1.6-0.1c0.1,0,0.2,0,0.2,0.1c0,0.7,0,1.2-0.1,1.7c0,0.1-0.1,0.2-0.1,0.2
			C294.2,214.6,294.1,214.6,294,214.6z"/>
		<path class="st114" d="M302.9,214.3c0,0.1,0,0.1-0.1,0.1c-0.1,0-0.5,0-1.1,0c-0.6,0-0.9,0-1.1,0c-0.1,0-0.2-0.1-0.3-0.3
			c-0.1-0.6-0.2-0.9-0.3-0.9c-0.1,0-0.6,0-1.6,0c-0.7,0-1,0-1.1,0.1c-0.1,0.1-0.1,0.3-0.2,0.6c-0.1,0.3-0.2,0.5-0.3,0.5
			c-0.1,0-0.6,0-1.3,0c-0.6,0-0.9-0.1-0.9-0.2c0-0.1,0.4-1.3,1.3-3.7c1-2.6,1.5-4,1.6-4.3c0-0.1,0.1-0.2,0.2-0.2c0.1,0,0.3,0,0.5,0
			s0.4,0,0.5,0c0.1,0,0.3,0,0.5,0s0.4,0,0.5,0c0.1,0,0.1,0.1,0.2,0.2c0.2,0.4,0.8,1.8,1.7,4.2C302.4,213,302.9,214.2,302.9,214.3z
			 M298.7,209c-0.1,0.2-0.2,0.5-0.4,1.1c-0.2,0.6-0.3,1-0.3,1.1c0,0.1,0.1,0.1,0.4,0.1c0.1,0,0.3,0,0.6,0c0.3,0,0.4,0,0.4-0.1
			c0,0,0,0,0-0.1c0-0.1-0.1-0.5-0.3-1.1C298.9,209.5,298.8,209.1,298.7,209z"/>
		<path class="st114" d="M310.2,208.4c0,0.2,0,0.3-0.1,0.4c-0.5,1-1.2,2.1-2.1,3.2c-0.1,0.2-0.2,0.3-0.2,0.4c0,0.2,0,0.5,0,0.9
			s0,0.7,0,0.9c0,0.1,0,0.1,0,0.1c0,0-0.1,0-0.2,0c-0.1,0-0.5,0-1.1,0c-0.6,0-0.9,0-1.1,0c-0.1,0-0.2-0.1-0.2-0.2
			c0-0.2,0-0.5,0.1-0.9s0.1-0.7,0.1-1c0-0.1,0-0.3-0.1-0.4c-0.5-0.7-1.1-1.7-2-3.1c-0.1-0.2-0.1-0.3-0.1-0.4c0-0.2,0-0.6,0-1.1
			s0-0.8,0-1.1c0-0.1,0-0.2,0.1-0.2c0.2,0,0.6,0,1.1,0s0.8,0,1.1,0c0.1,0,0.1,0,0.1,0.1c0,0.2,0,0.5,0,0.9s0,0.7,0,0.9
			c0,0.1,0.2,0.4,0.5,0.9c0.3,0.4,0.5,0.7,0.7,0.8c0.2-0.2,0.4-0.5,0.6-0.8c0.3-0.5,0.5-0.8,0.5-0.8c0-0.2,0-0.5,0-0.9s0-0.7,0-0.9
			c0-0.1,0-0.1,0.1-0.1h0.1c0.2,0,0.6,0,1.1,0s0.8,0,1.1,0c0.1,0,0.1,0.1,0.1,0.3c0,0.2,0,0.5,0,0.9S310.2,208.2,310.2,208.4z"/>
		<path class="st114" d="M316.9,212.7c0,0.2,0,0.5-0.1,0.9c-0.1,0.5-0.1,0.8-0.2,0.9c0,0.1-0.1,0.1-0.2,0.1c0,0-0.1,0-0.2,0
			c-0.3,0-1.1-0.1-2.5-0.1c-0.3,0-0.7,0-1.3,0s-1,0-1.3,0c-0.1,0-0.2-0.1-0.2-0.2c0-0.4,0-1.1,0.1-2s0.1-1.5,0.1-2
			c0-0.4,0-1.3-0.1-2.5c0-0.3,0-0.8-0.1-1.4l0-0.1c0-0.1,0-0.1,0.1-0.1c0.3,0,0.7,0,1.3,0s1,0,1.3,0c0.3,0,0.7,0,1.3,0s1,0,1.3,0
			c0.2,0,0.3,0.1,0.4,0.2c0,0.1,0,0.4,0.1,0.8s0.1,0.7,0.1,0.8c0,0.1,0,0.1-0.1,0.1c0,0-0.1,0-0.1,0c-1-0.1-2-0.1-2.8-0.1
			c-0.2,0-0.3,0-0.4,0.1c0,0,0,0.2,0,0.5c0,0.3,0,0.4,0.1,0.5c0.1,0.1,0.2,0.1,0.4,0.1c0,0,0.1,0,0.2,0s0.2,0,0.3,0c0.5,0,1,0,1.5,0
			c0,0,0.2,0,0.3,0c0.1,0,0.2,0,0.3,0c0.1,0,0.1,0,0.1,0.1c0-0.1,0,0.2-0.1,0.9c0,0.3,0,0.6,0,0.9c0,0.1-0.1,0.1-0.2,0.1l-0.5-0.1
			c-0.2,0-0.7,0-1.5,0h-0.6c-0.2,0-0.3,0-0.3,0.1c0,0,0,0.1,0,0.4c0,0.3,0,0.5,0.1,0.6c0.1,0.1,0.3,0.2,0.8,0.3c0,0,0.3,0,0.9,0
			c0.2,0,0.5,0,0.9-0.1s0.7-0.1,0.9-0.1C316.9,212.4,316.9,212.5,316.9,212.7z"/>
		<path class="st114" d="M324.7,214.4c0,0,0,0-0.1,0.1c-0.1,0-0.5,0-1.1,0c-0.5,0-0.9,0-1,0c-0.1,0-0.1,0-0.1,0c0,0-0.1-0.1-0.1-0.1
			c-0.1-0.2-0.1-0.4-0.3-0.7c-0.2-0.4-0.4-1-0.7-1.7c-0.1-0.2-0.2-0.2-0.5-0.3c0.1,0-0.1,0-0.6,0c-0.1,0-0.1,0.1-0.1,0.3
			c0,0.3,0,0.7,0.1,1.2s0.1,0.9,0.1,1.2c0,0.1,0,0.1-0.1,0.1c-0.1,0-0.1,0-0.2,0c-0.2,0-0.6,0-1.1,0c-0.6,0-0.9,0-1,0
			s-0.2-0.1-0.2-0.2c0-0.4,0-1.1,0.1-1.9s0.1-1.5,0.1-2c0-1.7,0-2.9-0.1-3.9l0-0.1c0-0.1,0.1-0.1,0.2-0.1s0.7,0,1.8-0.1
			c0.7,0,1.3,0,1.7,0c0.9,0,1.6,0.2,2.2,0.6c0.6,0.5,1,1.1,1,2c0,0.6-0.1,1-0.2,1.4s-0.5,0.7-0.9,1c-0.1,0.1-0.1,0.1-0.1,0.2
			c0,0,0.2,0.5,0.7,1.5S324.7,214.3,324.7,214.4z M322.2,209.2c0-0.5-0.2-0.8-0.5-1c-0.2-0.1-0.6-0.2-1.1-0.2
			c-0.4,0-0.6,0.1-0.6,0.2c0,0.1,0,0.5,0,1.1c0,0.1,0,0.2,0,0.4s0,0.3,0,0.4c0,0,0.1,0,0.2,0.1c0.2,0,0.5,0.1,0.8,0.1
			C321.8,210.2,322.2,209.8,322.2,209.2z"/>
	</g>
</g>
<g>
	<g>
		<path class="st114" d="M292,195.7c0,0-0.4,0.8-1.1,2.4c-0.7,1.6-1.2,2.5-1.3,2.7c0,0.1-0.1,0.1-0.1,0.1c0,0-0.1,0-0.1,0.1
			c-0.1,0-0.4,0-0.8,0c-0.4,0-0.7,0-0.8,0c-0.1,0-0.1,0-0.1,0s0,0-0.1-0.1c0,0-0.1-0.3-0.3-0.8l-0.6-1.6L286,200
			c-0.1,0.2-0.2,0.5-0.3,0.8c0,0.1-0.1,0.1-0.1,0.1s-0.1,0-0.1,0c-0.1,0-0.4,0-0.8,0c-0.5,0-0.8,0-0.8,0c-0.1,0-0.1-0.1-0.2-0.2
			c-1.5-3.1-2.3-4.8-2.3-5.1c0-0.3,0-0.8,0-1.4s0-1.1,0-1.4c0-0.1,0-0.2,0.1-0.2c0.2,0,0.6,0,1,0s0.8,0,1,0c0.1,0,0.1,0,0.1,0.1
			c0,0.3,0,0.8,0,1.4s0,1.1,0,1.4c0,0.1,0.1,0.5,0.4,1.1c0.3,0.6,0.4,0.9,0.6,1.1c0.1,0.1,0.1,0.2,0.1,0.2c0,0,0.1-0.2,0.2-0.6
			c0.4-1.1,0.6-1.7,0.6-1.9c0-0.4,0-0.8,0-1.4c0-0.8,0-1.3,0-1.4c0-0.1,0-0.1,0-0.1s0.1,0,0.1,0c0.2,0,0.5,0,1,0
			c0.7,0,1.1,0.1,1.1,0.2c0,0.3,0,0.7,0,1.2c0,0.5,0,0.9,0,1.2v0.3c0,0.2,0.2,0.8,0.6,1.9c0.1,0.4,0.2,0.6,0.2,0.6
			c0,0,0.1-0.1,0.1-0.2c0.1-0.2,0.3-0.6,0.5-1.1c0.3-0.6,0.4-1,0.4-1.1c0-0.3,0-0.8,0-1.4s0-1.1,0-1.4c0-0.1,0-0.1,0.1-0.1
			c0.2,0,0.6,0,1,0s0.8,0,1,0c0.1,0,0.1,0.1,0.1,0.2c0,0.3,0,0.8,0,1.4S292,195.4,292,195.7z"/>
		<path class="st114" d="M295.2,196.6c0,0.5,0,1.2,0,2.1s0,1.6,0,2.1c0,0.1,0,0.1-0.1,0.1c0,0-0.1,0-0.2,0c-0.3,0-0.6,0-1,0
			c-0.6,0-0.9,0-1.1,0c-0.1,0-0.2-0.1-0.2-0.2c0,0.1,0-0.3,0.1-1c0.1-1.6,0.1-2.6,0.1-3.1c0-0.4,0-1,0-1.9s0-1.5,0-1.9
			c0-0.1,0-0.1,0.1-0.1c0.1,0,0.3,0,0.5,0s0.4,0,0.5,0s0.3,0,0.5,0s0.4,0,0.5,0c0.1,0,0.2,0,0.2,0.1c0,0.4,0,1-0.1,1.9
			S295.2,196.2,295.2,196.6z"/>
		<path class="st114" d="M302.1,194.5c0,0.1,0,0.1-0.1,0.1c-0.1,0-0.7,0-1.8-0.1c0,1,0,1.7,0,2.1c0,0.5,0,1.2,0.1,2.1
			s0.1,1.6,0.1,2.1c0,0.1,0,0.1-0.1,0.1c0,0-0.1,0-0.2,0c-0.2,0-0.6,0-1,0c-0.5,0-0.9,0-1.1,0c-0.1,0-0.2-0.1-0.2-0.2
			c0-0.5,0-1.2,0.1-2.1s0.1-1.6,0.1-2.1c0-0.3,0-1,0-2c-0.8,0.1-1.4,0.1-1.9,0.1c-0.1,0-0.1,0-0.1-0.1c0-0.1,0-0.2,0.1-0.5
			c0.1-0.3,0.1-0.4,0.1-0.5c0-0.2,0-0.4,0-0.6c0-0.3,0.1-0.4,0.1-0.4c0,0,0,0,0.1,0c0.6,0.1,1.6,0.1,2.8,0.1c0.4,0,1,0,1.9-0.1
			c0.5,0,0.8-0.1,0.8-0.1c0.1,0,0.1,0,0.1,0s0,0,0,0.1c0,0.1,0,0.3,0,0.4c0,0.2,0,0.4,0,0.4c0,0.1,0,0.2,0,0.4
			S302.1,194.4,302.1,194.5z"/>
		<path class="st114" d="M310.6,200.8c0,0.1,0,0.1-0.1,0.2c0,0-0.1,0-0.2,0c-0.2,0-0.6,0-1,0c-0.6,0-1,0-1.1,0s-0.2-0.1-0.2-0.2
			c0-0.3,0-0.8,0-1.4s0-1.1,0-1.4c0-0.2,0-0.2-0.1-0.3c-0.1,0-0.6,0-1.4,0c-0.8,0-1.3,0-1.4,0c-0.1,0-0.1,0.1-0.1,0.3
			c0,0.3,0,0.8,0,1.4s0,1.1,0,1.4c0,0.1-0.1,0.2-0.2,0.2c-0.1,0-0.5,0-1.1,0c-0.5,0-0.9,0-1,0c-0.1,0-0.2-0.1-0.2-0.2
			c0-0.4,0-1.1,0.1-1.9s0.1-1.5,0.1-1.9c0-0.5,0-1.1-0.1-2s-0.1-1.6-0.1-2c0-0.1,0-0.1,0.1-0.1c0.1,0,0.3,0,0.5,0s0.4,0,0.5,0
			c0.1,0,0.3,0,0.6,0s0.4,0,0.6,0c0.1,0,0.1,0,0.1,0.1c0,0.3,0,0.7-0.1,1.3s-0.1,1-0.1,1.3c0,0.1,0,0.2,0.1,0.2c0.1,0,0.6,0,1.5,0
			c0.8,0,1.3,0,1.5,0c0.1,0,0.1-0.1,0.1-0.2c0-0.3,0-0.7,0-1.3s0-1,0-1.3c0-0.1,0-0.2,0.1-0.2c0.1,0,0.3,0,0.5,0s0.4,0,0.5,0
			c0.1,0,0.3,0,0.5,0s0.4,0,0.5,0c0.1,0,0.2,0,0.2,0.1c0,0.4,0,1.1-0.1,2s-0.1,1.6-0.1,2c0,0.4,0,1.1,0.1,1.9
			S310.6,200.3,310.6,200.8z"/>
	</g>
</g>
</svg>
