<svg xmlns="http://www.w3.org/2000/svg" width="58.672" height="50" viewBox="0 0 58.672 50"><defs><style>.a{fill:#ff48a1;}</style></defs><path class="a" d="M588.709,632.336a12.524,12.524,0,1,1,12.524-12.524A12.537,12.537,0,0,1,588.709,632.336Zm0-22.981a10.458,10.458,0,1,0,10.458,10.458A10.469,10.469,0,0,0,588.709,609.355Z" transform="translate(-559.023 -607.289)"/><path class="a" d="M581.539,697.143a1.033,1.033,0,0,1-1.033-1.033v-4.646H563.629v4.646a1.033,1.033,0,1,1-2.066,0v-5.679A1.034,1.034,0,0,1,562.6,689.4h18.943a1.034,1.034,0,0,1,1.033,1.033v5.679A1.033,1.033,0,0,1,581.539,697.143Z" transform="translate(-552.219 -647.143)"/><path class="a" d="M555.549,652.731a2.041,2.041,0,0,1,.575,1.439v4.212h2.066V654.17a4.12,4.12,0,0,0-1.18-2.9l-.9-.9-7.745-7.748h0a3.658,3.658,0,0,1-.877-1.607l-1.73-11.647a1.034,1.034,0,0,0-.024-.115,1.92,1.92,0,0,1,3.695-1.049l1.417,10.077a4.922,4.922,0,0,0,1.385,2.778l8.376,8.376a1.033,1.033,0,1,0,1.461-1.461l-8.376-8.376a2.844,2.844,0,0,1-.8-1.6l-1.426-10.146a.975.975,0,0,0-.025-.123,3.987,3.987,0,0,0-7.718,2l1.73,11.644a.958.958,0,0,0,.019.1,5.807,5.807,0,0,0,1.435,2.62l7.742,7.745Z" transform="translate(-543.599 -616.128)"/><path class="a" d="M568.961,659.657a1.033,1.033,0,0,0,1.461-1.461l-6.78-6.779a1.921,1.921,0,1,1,2.717-2.717l9.158,9.158a5.241,5.241,0,0,1,1.523,3.678v7.07h2.066v-7.07a7.319,7.319,0,0,0-2.128-5.139l-9.158-9.158a3.987,3.987,0,1,0-5.639,5.638Z" transform="translate(-551.956 -626.352)"/><path class="a" d="M618.021,697.143a1.033,1.033,0,0,1-1.033-1.033v-4.646H600.111v4.646a1.033,1.033,0,1,1-2.066,0v-5.679a1.034,1.034,0,0,1,1.033-1.033h18.943a1.033,1.033,0,0,1,1.032,1.033v5.679A1.033,1.033,0,0,1,618.021,697.143Z" transform="translate(-569.726 -647.143)"/><path class="a" d="M636.131,624.9a3.991,3.991,0,0,0-4.882,2.82.982.982,0,0,0-.026.123L629.8,637.991a2.844,2.844,0,0,1-.8,1.6l-8.376,8.376a1.033,1.033,0,0,0,1.461,1.461l8.375-8.375a4.926,4.926,0,0,0,1.386-2.778l1.417-10.077a1.921,1.921,0,0,1,3.695,1.05,1.066,1.066,0,0,0-.023.114l-1.73,11.647a3.65,3.65,0,0,1-.861,1.592c-.013.012-.014.013-3.633,3.634l-5.031,5.032a4.119,4.119,0,0,0-1.18,2.9v4.212h2.065V654.17a2.043,2.043,0,0,1,.575-1.439l5.031-5.033c1.916-1.916,3.568-3.57,3.619-3.619a5.812,5.812,0,0,0,1.432-2.617c.008-.031.014-.064.019-.1l1.73-11.644A3.993,3.993,0,0,0,636.131,624.9Z" transform="translate(-580.414 -616.128)"/><path class="a" d="M606.27,668.609v-7.071a5.241,5.241,0,0,1,1.522-3.678l9.159-9.158a1.921,1.921,0,1,1,2.717,2.717l-6.781,6.779a1.033,1.033,0,1,0,1.461,1.46l6.781-6.779a3.987,3.987,0,1,0-5.639-5.638l-9.158,9.158a7.316,7.316,0,0,0-2.128,5.139v7.071Z" transform="translate(-572.681 -626.355)"/><g transform="translate(24.389 7.228)"><rect class="a" width="12.043" height="2.429" transform="translate(0 4.289)"/><rect class="a" width="12.043" height="2.429" transform="translate(0 8.579)"/><rect class="a" width="12.043" height="2.429" transform="translate(0 0)"/></g></svg>