<svg xmlns="http://www.w3.org/2000/svg" width="54.481" height="59.797" viewBox="0 0 54.481 59.797"><defs><style>.a{fill:#ff48a1;}</style></defs><g transform="translate(-990.202 -215.6)"><path class="a" d="M1068.04,292.394a3.674,3.674,0,1,1,3.674-3.675A3.68,3.68,0,0,1,1068.04,292.394Zm0-5.3a1.626,1.626,0,1,0,1.625,1.625A1.628,1.628,0,0,0,1068.04,287.094Z" transform="translate(-35.932 -33.647)"/><path class="a" d="M1009.878,319.412h-3.414a1.024,1.024,0,1,1,0-2.049h3.414a1.024,1.024,0,0,1,0,2.049Z" transform="translate(-7.383 -49.305)"/><path class="a" d="M1029.623,319.412h-3.414a1.024,1.024,0,0,1,0-2.049h3.414a1.024,1.024,0,1,1,0,2.049Z" transform="translate(-16.949 -49.305)"/><path class="a" d="M1049.368,319.412h-3.414a1.024,1.024,0,0,1,0-2.049h3.414a1.024,1.024,0,0,1,0,2.049Z" transform="translate(-26.516 -49.305)"/><path class="a" d="M1069.114,319.412H1065.7a1.024,1.024,0,1,1,0-2.049h3.414a1.024,1.024,0,0,1,0,2.049Z" transform="translate(-36.083 -49.305)"/><path class="a" d="M1009.878,265.057h-3.414a1.024,1.024,0,1,1,0-2.049h3.414a1.024,1.024,0,0,1,0,2.049Z" transform="translate(-7.383 -22.969)"/><path class="a" d="M1029.623,265.057h-3.414a1.024,1.024,0,0,1,0-2.049h3.414a1.024,1.024,0,1,1,0,2.049Z" transform="translate(-16.949 -22.969)"/><path class="a" d="M1049.368,265.057h-3.414a1.024,1.024,0,0,1,0-2.049h3.414a1.024,1.024,0,0,1,0,2.049Z" transform="translate(-26.516 -22.969)"/><path class="a" d="M1069.114,265.057H1065.7a1.024,1.024,0,1,1,0-2.049h3.414a1.024,1.024,0,0,1,0,2.049Z" transform="translate(-36.083 -22.969)"/><path class="a" d="M1075.718,292.6h-16.407a2.943,2.943,0,0,1-2.94-2.939v-8.2a2.944,2.944,0,0,1,2.94-2.94h16.407a1.024,1.024,0,0,1,1.025,1.024v12.027A1.024,1.024,0,0,1,1075.718,292.6Zm-16.407-12.027a.893.893,0,0,0-.891.892v8.2a.892.892,0,0,0,.891.891h15.383v-9.978Z" transform="translate(-32.059 -30.485)"/><path class="a" d="M1065.26,240.758h4.969c1.624,0,2.256.632,2.256,2.256a1.024,1.024,0,0,0,2.049,0,3.918,3.918,0,0,0-4.3-4.3h-4.847Z" transform="translate(-36.366 -11.196)"/><path class="a" d="M1041.952,259.231v-9.7a3.589,3.589,0,0,0-3.585-3.585H996.862c-3.685,0-4.486-1.925-4.611-2.311.009-.958.208-2.876,4.611-2.876h7.89l-.122-2.049h-7.767c-5.5,0-6.66,2.75-6.66,5.058v39.242a3.589,3.589,0,0,0,3.585,3.585h44.581a3.589,3.589,0,0,0,3.585-3.585v-9.7H1039.9v9.7a1.538,1.538,0,0,1-1.536,1.537H993.787a1.538,1.538,0,0,1-1.536-1.537V246.773a7.94,7.94,0,0,0,4.611,1.22h41.506a1.538,1.538,0,0,1,1.536,1.537v9.7Z" transform="translate(0 -11.196)"/><path class="a" d="M1037.772,234.749a10.054,10.054,0,0,0,2.754-6.951,10.148,10.148,0,1,0-17.543,6.951h-2.631a12.2,12.2,0,1,1,20.053,0Z" transform="translate(-13.556)"/><g transform="translate(1010.202 221.602)"><rect class="a" width="13.333" height="2.689" transform="translate(0 4.748)"/><rect class="a" width="13.333" height="2.689" transform="translate(0 9.497)"/><rect class="a" width="13.333" height="2.689" transform="translate(0 -0.001)"/></g></g></svg>